<?xml version="1.0" encoding="UTF-8" standalone="no"?>
<!DOCTYPE svg PUBLIC "-//W3C//DTD SVG 1.0//EN"
 "http://www.w3.org/TR/2001/REC-SVG-20010904/DTD/svg10.dtd" [
 <!ATTLIST svg xmlns:xlink CDATA #FIXED "http://www.w3.org/1999/xlink">
]>
<!-- Generated by Graphviz version 2.20.2 (Tue Mar &#160;2 19:03:41 UTC 2010)
 -->
<!-- Title: G Pages: 1 -->
<svg width="572pt" height="1082pt"
 viewBox="0.00 0.00 572.00 1082.00" xmlns="http://www.w3.org/2000/svg" xmlns:xlink="http://www.w3.org/1999/xlink">
<g id="graph0" class="graph" transform="scale(1 1) rotate(0) translate(4 1078)">
<title>G</title>
<polygon style="fill:white;stroke:white;" points="-4,4 -4,-1078 568,-1078 568,4 -4,4"/>
<g id="cluster2" class="cluster"><title>cluster_OpenShareFile</title>
<polyline style="fill:none;stroke:gray;" points="232,-52 544,-52 "/>
<path style="fill:none;stroke:gray;" d="M544,-52C550,-52 556,-58 556,-64"/>
<polyline style="fill:none;stroke:gray;" points="556,-64 556,-1054 "/>
<path style="fill:none;stroke:gray;" d="M556,-1054C556,-1060 550,-1066 544,-1066"/>
<polyline style="fill:none;stroke:gray;" points="544,-1066 232,-1066 "/>
<path style="fill:none;stroke:gray;" d="M232,-1066C226,-1066 220,-1060 220,-1054"/>
<polyline style="fill:none;stroke:gray;" points="220,-1054 220,-64 "/>
<path style="fill:none;stroke:gray;" d="M220,-64C220,-58 226,-52 232,-52"/>
<text text-anchor="middle" x="388" y="-1052.1" style="font-family:Times New Roman;font-size:11.00;fill:gray;">OpenShareFile</text>
</g>
<g id="cluster3" class="cluster"><title>cluster_OpenShareFile\App</title>
<polyline style="fill:none;stroke:gray;" points="245,-854 527,-854 "/>
<path style="fill:none;stroke:gray;" d="M527,-854C533,-854 539,-860 539,-866"/>
<polyline style="fill:none;stroke:gray;" points="539,-866 539,-1024 "/>
<path style="fill:none;stroke:gray;" d="M539,-1024C539,-1030 533,-1036 527,-1036"/>
<polyline style="fill:none;stroke:gray;" points="527,-1036 245,-1036 "/>
<path style="fill:none;stroke:gray;" d="M245,-1036C239,-1036 233,-1030 233,-1024"/>
<polyline style="fill:none;stroke:gray;" points="233,-1024 233,-866 "/>
<path style="fill:none;stroke:gray;" d="M233,-866C233,-860 239,-854 245,-854"/>
<text text-anchor="middle" x="386" y="-1022.1" style="font-family:Times New Roman;font-size:11.00;fill:gray;">App</text>
</g>
<g id="cluster4" class="cluster"><title>cluster_OpenShareFile\Core</title>
<polyline style="fill:none;stroke:gray;" points="240,-580 535,-580 "/>
<path style="fill:none;stroke:gray;" d="M535,-580C541,-580 547,-586 547,-592"/>
<polyline style="fill:none;stroke:gray;" points="547,-592 547,-834 "/>
<path style="fill:none;stroke:gray;" d="M547,-834C547,-840 541,-846 535,-846"/>
<polyline style="fill:none;stroke:gray;" points="535,-846 240,-846 "/>
<path style="fill:none;stroke:gray;" d="M240,-846C234,-846 228,-840 228,-834"/>
<polyline style="fill:none;stroke:gray;" points="228,-834 228,-592 "/>
<path style="fill:none;stroke:gray;" d="M228,-592C228,-586 234,-580 240,-580"/>
<text text-anchor="middle" x="387" y="-832.1" style="font-family:Times New Roman;font-size:11.00;fill:gray;">Core</text>
</g>
<g id="cluster5" class="cluster"><title>cluster_OpenShareFile\Core\Exception</title>
<polyline style="fill:none;stroke:gray;" points="248,-688 527,-688 "/>
<path style="fill:none;stroke:gray;" d="M527,-688C533,-688 539,-694 539,-700"/>
<polyline style="fill:none;stroke:gray;" points="539,-700 539,-804 "/>
<path style="fill:none;stroke:gray;" d="M539,-804C539,-810 533,-816 527,-816"/>
<polyline style="fill:none;stroke:gray;" points="527,-816 248,-816 "/>
<path style="fill:none;stroke:gray;" d="M248,-816C242,-816 236,-810 236,-804"/>
<polyline style="fill:none;stroke:gray;" points="236,-804 236,-700 "/>
<path style="fill:none;stroke:gray;" d="M236,-700C236,-694 242,-688 248,-688"/>
<text text-anchor="middle" x="387" y="-802.1" style="font-family:Times New Roman;font-size:11.00;fill:gray;">Exception</text>
</g>
<g id="cluster7" class="cluster"><title>cluster_OpenShareFile\Extension</title>
<polyline style="fill:none;stroke:gray;" points="463,-188 529,-188 "/>
<path style="fill:none;stroke:gray;" d="M529,-188C535,-188 541,-194 541,-200"/>
<polyline style="fill:none;stroke:gray;" points="541,-200 541,-424 "/>
<path style="fill:none;stroke:gray;" d="M541,-424C541,-430 535,-436 529,-436"/>
<polyline style="fill:none;stroke:gray;" points="529,-436 463,-436 "/>
<path style="fill:none;stroke:gray;" d="M463,-436C457,-436 451,-430 451,-424"/>
<polyline style="fill:none;stroke:gray;" points="451,-424 451,-200 "/>
<path style="fill:none;stroke:gray;" d="M451,-200C451,-194 457,-188 463,-188"/>
<text text-anchor="middle" x="496" y="-422.1" style="font-family:Times New Roman;font-size:11.00;fill:gray;">Extension</text>
</g>
<g id="cluster8" class="cluster"><title>cluster_OpenShareFile\Extension\Swift</title>
<polyline style="fill:none;stroke:gray;" points="473,-332 519,-332 "/>
<path style="fill:none;stroke:gray;" d="M519,-332C525,-332 531,-338 531,-344"/>
<polyline style="fill:none;stroke:gray;" points="531,-344 531,-394 "/>
<path style="fill:none;stroke:gray;" d="M531,-394C531,-400 525,-406 519,-406"/>
<polyline style="fill:none;stroke:gray;" points="519,-406 473,-406 "/>
<path style="fill:none;stroke:gray;" d="M473,-406C467,-406 461,-400 461,-394"/>
<polyline style="fill:none;stroke:gray;" points="461,-394 461,-344 "/>
<path style="fill:none;stroke:gray;" d="M461,-344C461,-338 467,-332 473,-332"/>
<text text-anchor="middle" x="496" y="-392.1" style="font-family:Times New Roman;font-size:11.00;fill:gray;">Swift</text>
</g>
<g id="cluster9" class="cluster"><title>cluster_OpenShareFile\Extension\Twig</title>
<polyline style="fill:none;stroke:gray;" points="471,-196 521,-196 "/>
<path style="fill:none;stroke:gray;" d="M521,-196C527,-196 533,-202 533,-208"/>
<polyline style="fill:none;stroke:gray;" points="533,-208 533,-312 "/>
<path style="fill:none;stroke:gray;" d="M533,-312C533,-318 527,-324 521,-324"/>
<polyline style="fill:none;stroke:gray;" points="521,-324 471,-324 "/>
<path style="fill:none;stroke:gray;" d="M471,-324C465,-324 459,-318 459,-312"/>
<polyline style="fill:none;stroke:gray;" points="459,-312 459,-208 "/>
<path style="fill:none;stroke:gray;" d="M459,-208C459,-202 465,-196 471,-196"/>
<text text-anchor="middle" x="496" y="-310.1" style="font-family:Times New Roman;font-size:11.00;fill:gray;">Twig</text>
</g>
<g id="cluster12" class="cluster"><title>cluster_OpenShareFile\Model</title>
<polyline style="fill:none;stroke:gray;" points="245,-444 521,-444 "/>
<path style="fill:none;stroke:gray;" d="M521,-444C527,-444 533,-450 533,-456"/>
<polyline style="fill:none;stroke:gray;" points="533,-456 533,-560 "/>
<path style="fill:none;stroke:gray;" d="M533,-560C533,-566 527,-572 521,-572"/>
<polyline style="fill:none;stroke:gray;" points="521,-572 245,-572 "/>
<path style="fill:none;stroke:gray;" d="M245,-572C239,-572 233,-566 233,-560"/>
<polyline style="fill:none;stroke:gray;" points="233,-560 233,-456 "/>
<path style="fill:none;stroke:gray;" d="M233,-456C233,-450 239,-444 245,-444"/>
<text text-anchor="middle" x="383" y="-558.1" style="font-family:Times New Roman;font-size:11.00;fill:gray;">Model</text>
</g>
<g id="cluster13" class="cluster"><title>cluster_OpenShareFile\Utils</title>
<polyline style="fill:none;stroke:gray;" points="471,-106 521,-106 "/>
<path style="fill:none;stroke:gray;" d="M521,-106C527,-106 533,-112 533,-118"/>
<polyline style="fill:none;stroke:gray;" points="533,-118 533,-168 "/>
<path style="fill:none;stroke:gray;" d="M533,-168C533,-174 527,-180 521,-180"/>
<polyline style="fill:none;stroke:gray;" points="521,-180 471,-180 "/>
<path style="fill:none;stroke:gray;" d="M471,-180C465,-180 459,-174 459,-168"/>
<polyline style="fill:none;stroke:gray;" points="459,-168 459,-118 "/>
<path style="fill:none;stroke:gray;" d="M459,-118C459,-112 465,-106 471,-106"/>
<text text-anchor="middle" x="496" y="-166.1" style="font-family:Times New Roman;font-size:11.00;fill:gray;">Utils</text>
</g>
<!-- \\OpenShareFile\\App\\Download -->
<g id="node3" class="node"><title>\\OpenShareFile\\App\\Download</title>
<a xlink:href="OpenShareFile.App.Download.html" xlink:title="Download" target="_parent">
<polygon style="fill:none;stroke:black;" points="531,-1006 461,-1006 461,-970 531,-970 531,-1006"/>
<text text-anchor="middle" x="496" y="-985.1" style="font-family:Courier;font-size:11.00;">Download</text>
</a>
</g>
<!-- \\OpenShareFile\\App\\App -->
<g id="node5" class="node"><title>\\OpenShareFile\\App\\App</title>
<a xlink:href="OpenShareFile.App.App.html" xlink:title="«abstract»&lt;br/&gt;App" target="_parent">
<polygon style="fill:none;stroke:black;" points="325,-952 241,-952 241,-916 325,-916 325,-952"/>
<text text-anchor="start" x="249" y="-938.933" style="font-family:Courier;font-size:11.00;">«abstract»</text>
<text text-anchor="start" x="273" y="-925.733" style="font-family:Courier;font-size:11.00;">App</text>
</a>
</g>
<!-- \\OpenShareFile\\App\\Download&#45;&gt;\\OpenShareFile\\App\\App -->
<g id="edge14" class="edge"><title>\\OpenShareFile\\App\\Download&#45;&gt;\\OpenShareFile\\App\\App</title>
<path style="fill:none;stroke:black;" d="M461,-979C426,-971 374,-957 335,-947"/>
<polygon style="fill:none;stroke:black;" points="335.492,-943.529 325,-945 334.119,-950.393 335.492,-943.529"/>
</g>
<!-- \\OpenShareFile\\App\\Upload -->
<g id="node4" class="node"><title>\\OpenShareFile\\App\\Upload</title>
<a xlink:href="OpenShareFile.App.Upload.html" xlink:title="Upload" target="_parent">
<polygon style="fill:none;stroke:black;" points="524,-952 468,-952 468,-916 524,-916 524,-952"/>
<text text-anchor="middle" x="496" y="-931.1" style="font-family:Courier;font-size:11.00;">Upload</text>
</a>
</g>
<!-- \\OpenShareFile\\App\\Upload&#45;&gt;\\OpenShareFile\\App\\App -->
<g id="edge16" class="edge"><title>\\OpenShareFile\\App\\Upload&#45;&gt;\\OpenShareFile\\App\\App</title>
<path style="fill:none;stroke:black;" d="M467,-934C434,-934 377,-934 335,-934"/>
<polygon style="fill:none;stroke:black;" points="335,-930.5 325,-934 335,-937.5 335,-930.5"/>
</g>
<!-- \\OpenShareFile\\App\\Index -->
<g id="node6" class="node"><title>\\OpenShareFile\\App\\Index</title>
<a xlink:href="OpenShareFile.App.Index.html" xlink:title="Index" target="_parent">
<polygon style="fill:none;stroke:black;" points="523,-898 469,-898 469,-862 523,-862 523,-898"/>
<text text-anchor="middle" x="496" y="-877.1" style="font-family:Courier;font-size:11.00;">Index</text>
</a>
</g>
<!-- \\OpenShareFile\\App\\Index&#45;&gt;\\OpenShareFile\\App\\App -->
<g id="edge18" class="edge"><title>\\OpenShareFile\\App\\Index&#45;&gt;\\OpenShareFile\\App\\App</title>
<path style="fill:none;stroke:black;" d="M469,-887C435,-895 377,-911 335,-921"/>
<polygon style="fill:none;stroke:black;" points="334.119,-917.607 325,-923 335.492,-924.471 334.119,-917.607"/>
</g>
<!-- \\OpenShareFile\\Core\\Exception\\Exception -->
<g id="node9" class="node"><title>\\OpenShareFile\\Core\\Exception\\Exception</title>
<a xlink:href="OpenShareFile.Core.Exception.Exception.html" xlink:title="Exception" target="_parent">
<polygon style="fill:none;stroke:black;" points="321,-759 245,-759 245,-723 321,-723 321,-759"/>
<text text-anchor="middle" x="283" y="-738.1" style="font-family:Courier;font-size:11.00;">Exception</text>
</a>
</g>
<!-- \\Exception -->
<g id="node39" class="node"><title>\\Exception</title>
<ellipse style="fill:none;stroke:black;" cx="61" cy="-741" rx="61.1496" ry="18"/>
<text text-anchor="middle" x="61" y="-736.9" style="font-family:Times New Roman;font-size:14.00;fill:gray;">\Exception</text>
</g>
<!-- \\OpenShareFile\\Core\\Exception\\Exception&#45;&gt;\\Exception -->
<g id="edge28" class="edge"><title>\\OpenShareFile\\Core\\Exception\\Exception&#45;&gt;\\Exception</title>
<path style="fill:none;stroke:black;" d="M244,-741C214,-741 169,-741 132,-741"/>
<polygon style="fill:none;stroke:black;" points="132,-737.5 122,-741 132,-744.5 132,-737.5"/>
</g>
<!-- \\OpenShareFile\\Core\\Exception\\Error404 -->
<g id="node10" class="node"><title>\\OpenShareFile\\Core\\Exception\\Error404</title>
<a xlink:href="OpenShareFile.Core.Exception.Error404.html" xlink:title="Error404" target="_parent">
<polygon style="fill:none;stroke:black;" points="531,-786 461,-786 461,-750 531,-750 531,-786"/>
<text text-anchor="middle" x="496" y="-765.1" style="font-family:Courier;font-size:11.00;">Error404</text>
</a>
</g>
<!-- \\OpenShareFile\\Core\\Exception\\Error404&#45;&gt;\\OpenShareFile\\Core\\Exception\\Exception -->
<g id="edge30" class="edge"><title>\\OpenShareFile\\Core\\Exception\\Error404&#45;&gt;\\OpenShareFile\\Core\\Exception\\Exception</title>
<path style="fill:none;stroke:black;" d="M461,-764C425,-759 371,-752 332,-747"/>
<polygon style="fill:none;stroke:black;" points="332.299,-743.512 322,-746 331.602,-750.478 332.299,-743.512"/>
</g>
<!-- \\OpenShareFile\\Core\\Exception\\Security -->
<g id="node11" class="node"><title>\\OpenShareFile\\Core\\Exception\\Security</title>
<a xlink:href="OpenShareFile.Core.Exception.Security.html" xlink:title="Security" target="_parent">
<polygon style="fill:none;stroke:black;" points="531,-732 461,-732 461,-696 531,-696 531,-732"/>
<text text-anchor="middle" x="496" y="-711.1" style="font-family:Courier;font-size:11.00;">Security</text>
</a>
</g>
<!-- \\OpenShareFile\\Core\\Exception\\Security&#45;&gt;\\OpenShareFile\\Core\\Exception\\Exception -->
<g id="edge32" class="edge"><title>\\OpenShareFile\\Core\\Exception\\Security&#45;&gt;\\OpenShareFile\\Core\\Exception\\Exception</title>
<path style="fill:none;stroke:black;" d="M461,-718C425,-723 371,-730 332,-735"/>
<polygon style="fill:none;stroke:black;" points="331.602,-731.522 322,-736 332.299,-738.488 331.602,-731.522"/>
</g>
<!-- \\OpenShareFile\\Core\\Config -->
<g id="node12" class="node"><title>\\OpenShareFile\\Core\\Config</title>
<a xlink:href="OpenShareFile.Core.Config.html" xlink:title="Config" target="_parent">
<polygon style="fill:none;stroke:black;" points="524,-678 468,-678 468,-642 524,-642 524,-678"/>
<text text-anchor="middle" x="496" y="-657.1" style="font-family:Courier;font-size:11.00;">Config</text>
</a>
</g>
<!-- \\OpenShareFile\\Core\\Autoload -->
<g id="node13" class="node"><title>\\OpenShareFile\\Core\\Autoload</title>
<a xlink:href="OpenShareFile.Core.Autoload.html" xlink:title="Autoload" target="_parent">
<polygon style="fill:none;stroke:black;" points="531,-624 461,-624 461,-588 531,-588 531,-624"/>
<text text-anchor="middle" x="496" y="-603.1" style="font-family:Courier;font-size:11.00;">Autoload</text>
</a>
</g>
<!-- \\OpenShareFile\\Extension\\Swift\\Send -->
<g id="node17" class="node"><title>\\OpenShareFile\\Extension\\Swift\\Send</title>
<a xlink:href="OpenShareFile.Extension.Swift.Send.html" xlink:title="Send" target="_parent">
<polygon style="fill:none;stroke:black;" points="523,-376 469,-376 469,-340 523,-340 523,-376"/>
<text text-anchor="middle" x="496" y="-355.1" style="font-family:Courier;font-size:11.00;">Send</text>
</a>
</g>
<!-- \\OpenShareFile\\Extension\\Twig\\Asset -->
<g id="node19" class="node"><title>\\OpenShareFile\\Extension\\Twig\\Asset</title>
<a xlink:href="OpenShareFile.Extension.Twig.Asset.html" xlink:title="Asset" target="_parent">
<polygon style="fill:none;stroke:black;" points="523,-294 469,-294 469,-258 523,-258 523,-294"/>
<text text-anchor="middle" x="496" y="-273.1" style="font-family:Courier;font-size:11.00;">Asset</text>
</a>
</g>
<!-- \\Twig_Extension -->
<g id="node36" class="node"><title>\\Twig_Extension</title>
<ellipse style="fill:none;stroke:black;" cx="283" cy="-26" rx="88.9449" ry="18"/>
<text text-anchor="middle" x="283" y="-21.9" style="font-family:Times New Roman;font-size:14.00;fill:gray;">\Twig_Extension</text>
</g>
<!-- \\OpenShareFile\\Extension\\Twig\\Asset&#45;&gt;\\Twig_Extension -->
<g id="edge24" class="edge"><title>\\OpenShareFile\\Extension\\Twig\\Asset&#45;&gt;\\Twig_Extension</title>
<path style="fill:none;stroke:black;" d="M469,-265C460,-261 451,-256 444,-249 376,-191 322,-98 297,-53"/>
<polygon style="fill:none;stroke:black;" points="299.916,-51.0418 292,-44 293.797,-54.4414 299.916,-51.0418"/>
</g>
<!-- \\OpenShareFile\\Extension\\Twig\\Config -->
<g id="node20" class="node"><title>\\OpenShareFile\\Extension\\Twig\\Config</title>
<a xlink:href="OpenShareFile.Extension.Twig.Config.html" xlink:title="Config" target="_parent">
<polygon style="fill:none;stroke:black;" points="524,-240 468,-240 468,-204 524,-204 524,-240"/>
<text text-anchor="middle" x="496" y="-219.1" style="font-family:Courier;font-size:11.00;">Config</text>
</a>
</g>
<!-- \\OpenShareFile\\Extension\\Twig\\Config&#45;&gt;\\Twig_Extension -->
<g id="edge26" class="edge"><title>\\OpenShareFile\\Extension\\Twig\\Config&#45;&gt;\\Twig_Extension</title>
<path style="fill:none;stroke:black;" d="M469,-204C461,-198 452,-191 444,-184 392,-141 337,-84 307,-52"/>
<polygon style="fill:none;stroke:black;" points="309.219,-49.221 300,-44 303.951,-53.8306 309.219,-49.221"/>
</g>
<!-- \\OpenShareFile\\Model\\Upload -->
<g id="node24" class="node"><title>\\OpenShareFile\\Model\\Upload</title>
<a xlink:href="OpenShareFile.Model.Upload.html" xlink:title="Upload" target="_parent">
<polygon style="fill:none;stroke:black;" points="524,-542 468,-542 468,-506 524,-506 524,-542"/>
<text text-anchor="middle" x="496" y="-521.1" style="font-family:Courier;font-size:11.00;">Upload</text>
</a>
</g>
<!-- \\OpenShareFile\\Model\\Db -->
<g id="node26" class="node"><title>\\OpenShareFile\\Model\\Db</title>
<a xlink:href="OpenShareFile.Model.Db.html" xlink:title="«abstract»&lt;br/&gt;Db" target="_parent">
<polygon style="fill:none;stroke:black;" points="325,-515 241,-515 241,-479 325,-479 325,-515"/>
<text text-anchor="start" x="249" y="-501.933" style="font-family:Courier;font-size:11.00;">«abstract»</text>
<text text-anchor="start" x="276" y="-488.733" style="font-family:Courier;font-size:11.00;">Db</text>
</a>
</g>
<!-- \\OpenShareFile\\Model\\Upload&#45;&gt;\\OpenShareFile\\Model\\Db -->
<g id="edge20" class="edge"><title>\\OpenShareFile\\Model\\Upload&#45;&gt;\\OpenShareFile\\Model\\Db</title>
<path style="fill:none;stroke:black;" d="M467,-520C434,-516 377,-509 335,-503"/>
<polygon style="fill:none;stroke:black;" points="335.299,-499.512 325,-502 334.602,-506.478 335.299,-499.512"/>
</g>
<!-- \\OpenShareFile\\Model\\File -->
<g id="node25" class="node"><title>\\OpenShareFile\\Model\\File</title>
<a xlink:href="OpenShareFile.Model.File.html" xlink:title="File" target="_parent">
<polygon style="fill:none;stroke:black;" points="523,-488 469,-488 469,-452 523,-452 523,-488"/>
<text text-anchor="middle" x="496" y="-467.1" style="font-family:Courier;font-size:11.00;">File</text>
</a>
</g>
<!-- \\OpenShareFile\\Model\\File&#45;&gt;\\OpenShareFile\\Model\\Db -->
<g id="edge22" class="edge"><title>\\OpenShareFile\\Model\\File&#45;&gt;\\OpenShareFile\\Model\\Db</title>
<path style="fill:none;stroke:black;" d="M469,-473C435,-478 378,-485 335,-491"/>
<polygon style="fill:none;stroke:black;" points="334.602,-487.522 325,-492 335.299,-494.488 334.602,-487.522"/>
</g>
<!-- \\OpenShareFile\\Utils\\Passwd -->
<g id="node28" class="node"><title>\\OpenShareFile\\Utils\\Passwd</title>
<a xlink:href="OpenShareFile.Utils.Passwd.html" xlink:title="Passwd" target="_parent">
<polygon style="fill:none;stroke:black;" points="524,-150 468,-150 468,-114 524,-114 524,-150"/>
<text text-anchor="middle" x="496" y="-129.1" style="font-family:Courier;font-size:11.00;">Passwd</text>
</a>
</g>
<!-- \\OpenShareFile\\OpenShareFile -->
<g id="node29" class="node"><title>\\OpenShareFile\\OpenShareFile</title>
<a xlink:href="OpenShareFile.OpenShareFile.html" xlink:title="OpenShareFile" target="_parent">
<polygon style="fill:none;stroke:black;" points="548,-96 444,-96 444,-60 548,-60 548,-96"/>
<text text-anchor="middle" x="496" y="-75.1" style="font-family:Courier;font-size:11.00;">OpenShareFile</text>
</a>
</g>
</g>
</svg>
