<?xml version="1.0" encoding="UTF-8" standalone="no"?>
<!DOCTYPE svg PUBLIC "-//W3C//DTD SVG 1.0//EN"
 "http://www.w3.org/TR/2001/REC-SVG-20010904/DTD/svg10.dtd" [
 <!ATTLIST svg xmlns:xlink CDATA #FIXED "http://www.w3.org/1999/xlink">
]>
<!-- Generated by Graphviz version 2.20.2 (Tue Mar &#160;2 19:03:41 UTC 2010)
 -->
<!-- Title: G Pages: 1 -->
<svg width="968pt" height="1646pt"
 viewBox="0.00 0.00 968.00 1646.00" xmlns="http://www.w3.org/2000/svg" xmlns:xlink="http://www.w3.org/1999/xlink">
<g id="graph0" class="graph" transform="scale(1 1) rotate(0) translate(4 1642)">
<title>G</title>
<polygon style="fill:white;stroke:white;" points="-4,4 -4,-1642 964,-1642 964,4 -4,4"/>
<g id="cluster2" class="cluster"><title>cluster_OpenShareFile</title>
<polyline style="fill:none;stroke:gray;" points="400,-214 940,-214 "/>
<path style="fill:none;stroke:gray;" d="M940,-214C946,-214 952,-220 952,-226"/>
<polyline style="fill:none;stroke:gray;" points="952,-226 952,-1618 "/>
<path style="fill:none;stroke:gray;" d="M952,-1618C952,-1624 946,-1630 940,-1630"/>
<polyline style="fill:none;stroke:gray;" points="940,-1630 400,-1630 "/>
<path style="fill:none;stroke:gray;" d="M400,-1630C394,-1630 388,-1624 388,-1618"/>
<polyline style="fill:none;stroke:gray;" points="388,-1618 388,-226 "/>
<path style="fill:none;stroke:gray;" d="M388,-226C388,-220 394,-214 400,-214"/>
<text text-anchor="middle" x="670" y="-1616.1" style="font-family:Times New Roman;font-size:11.00;fill:gray;">OpenShareFile</text>
</g>
<g id="cluster3" class="cluster"><title>cluster_OpenShareFile\App</title>
<polyline style="fill:none;stroke:gray;" points="413,-1418 877,-1418 "/>
<path style="fill:none;stroke:gray;" d="M877,-1418C883,-1418 889,-1424 889,-1430"/>
<polyline style="fill:none;stroke:gray;" points="889,-1430 889,-1588 "/>
<path style="fill:none;stroke:gray;" d="M889,-1588C889,-1594 883,-1600 877,-1600"/>
<polyline style="fill:none;stroke:gray;" points="877,-1600 413,-1600 "/>
<path style="fill:none;stroke:gray;" d="M413,-1600C407,-1600 401,-1594 401,-1588"/>
<polyline style="fill:none;stroke:gray;" points="401,-1588 401,-1430 "/>
<path style="fill:none;stroke:gray;" d="M401,-1430C401,-1424 407,-1418 413,-1418"/>
<text text-anchor="middle" x="645" y="-1586.1" style="font-family:Times New Roman;font-size:11.00;fill:gray;">App</text>
</g>
<g id="cluster4" class="cluster"><title>cluster_OpenShareFile\Core</title>
<polyline style="fill:none;stroke:gray;" points="408,-1144 885,-1144 "/>
<path style="fill:none;stroke:gray;" d="M885,-1144C891,-1144 897,-1150 897,-1156"/>
<polyline style="fill:none;stroke:gray;" points="897,-1156 897,-1398 "/>
<path style="fill:none;stroke:gray;" d="M897,-1398C897,-1404 891,-1410 885,-1410"/>
<polyline style="fill:none;stroke:gray;" points="885,-1410 408,-1410 "/>
<path style="fill:none;stroke:gray;" d="M408,-1410C402,-1410 396,-1404 396,-1398"/>
<polyline style="fill:none;stroke:gray;" points="396,-1398 396,-1156 "/>
<path style="fill:none;stroke:gray;" d="M396,-1156C396,-1150 402,-1144 408,-1144"/>
<text text-anchor="middle" x="646" y="-1396.1" style="font-family:Times New Roman;font-size:11.00;fill:gray;">Core</text>
</g>
<g id="cluster5" class="cluster"><title>cluster_OpenShareFile\Core\Exception</title>
<polyline style="fill:none;stroke:gray;" points="416,-1252 877,-1252 "/>
<path style="fill:none;stroke:gray;" d="M877,-1252C883,-1252 889,-1258 889,-1264"/>
<polyline style="fill:none;stroke:gray;" points="889,-1264 889,-1368 "/>
<path style="fill:none;stroke:gray;" d="M889,-1368C889,-1374 883,-1380 877,-1380"/>
<polyline style="fill:none;stroke:gray;" points="877,-1380 416,-1380 "/>
<path style="fill:none;stroke:gray;" d="M416,-1380C410,-1380 404,-1374 404,-1368"/>
<polyline style="fill:none;stroke:gray;" points="404,-1368 404,-1264 "/>
<path style="fill:none;stroke:gray;" d="M404,-1264C404,-1258 410,-1252 416,-1252"/>
<text text-anchor="middle" x="646" y="-1366.1" style="font-family:Times New Roman;font-size:11.00;fill:gray;">Exception</text>
</g>
<g id="cluster7" class="cluster"><title>cluster_OpenShareFile\Extension</title>
<polyline style="fill:none;stroke:gray;" points="760,-540 932,-540 "/>
<path style="fill:none;stroke:gray;" d="M932,-540C938,-540 944,-546 944,-552"/>
<polyline style="fill:none;stroke:gray;" points="944,-552 944,-988 "/>
<path style="fill:none;stroke:gray;" d="M944,-988C944,-994 938,-1000 932,-1000"/>
<polyline style="fill:none;stroke:gray;" points="932,-1000 760,-1000 "/>
<path style="fill:none;stroke:gray;" d="M760,-1000C754,-1000 748,-994 748,-988"/>
<polyline style="fill:none;stroke:gray;" points="748,-988 748,-552 "/>
<path style="fill:none;stroke:gray;" d="M748,-552C748,-546 754,-540 760,-540"/>
<text text-anchor="middle" x="846" y="-986.1" style="font-family:Times New Roman;font-size:11.00;fill:gray;">Extension</text>
</g>
<g id="cluster8" class="cluster"><title>cluster_OpenShareFile\Extension\Swift</title>
<polyline style="fill:none;stroke:gray;" points="823,-896 869,-896 "/>
<path style="fill:none;stroke:gray;" d="M869,-896C875,-896 881,-902 881,-908"/>
<polyline style="fill:none;stroke:gray;" points="881,-908 881,-958 "/>
<path style="fill:none;stroke:gray;" d="M881,-958C881,-964 875,-970 869,-970"/>
<polyline style="fill:none;stroke:gray;" points="869,-970 823,-970 "/>
<path style="fill:none;stroke:gray;" d="M823,-970C817,-970 811,-964 811,-958"/>
<polyline style="fill:none;stroke:gray;" points="811,-958 811,-908 "/>
<path style="fill:none;stroke:gray;" d="M811,-908C811,-902 817,-896 823,-896"/>
<text text-anchor="middle" x="846" y="-956.1" style="font-family:Times New Roman;font-size:11.00;fill:gray;">Swift</text>
</g>
<g id="cluster9" class="cluster"><title>cluster_OpenShareFile\Extension\Symfony</title>
<polyline style="fill:none;stroke:gray;" points="768,-684 924,-684 "/>
<path style="fill:none;stroke:gray;" d="M924,-684C930,-684 936,-690 936,-696"/>
<polyline style="fill:none;stroke:gray;" points="936,-696 936,-876 "/>
<path style="fill:none;stroke:gray;" d="M936,-876C936,-882 930,-888 924,-888"/>
<polyline style="fill:none;stroke:gray;" points="924,-888 768,-888 "/>
<path style="fill:none;stroke:gray;" d="M768,-888C762,-888 756,-882 756,-876"/>
<polyline style="fill:none;stroke:gray;" points="756,-876 756,-696 "/>
<path style="fill:none;stroke:gray;" d="M756,-696C756,-690 762,-684 768,-684"/>
<text text-anchor="middle" x="846" y="-874.1" style="font-family:Times New Roman;font-size:11.00;fill:gray;">Symfony</text>
</g>
<g id="cluster10" class="cluster"><title>cluster_OpenShareFile\Extension\Symfony\Validator</title>
<polyline style="fill:none;stroke:gray;" points="776,-692 916,-692 "/>
<path style="fill:none;stroke:gray;" d="M916,-692C922,-692 928,-698 928,-704"/>
<polyline style="fill:none;stroke:gray;" points="928,-704 928,-846 "/>
<path style="fill:none;stroke:gray;" d="M928,-846C928,-852 922,-858 916,-858"/>
<polyline style="fill:none;stroke:gray;" points="916,-858 776,-858 "/>
<path style="fill:none;stroke:gray;" d="M776,-858C770,-858 764,-852 764,-846"/>
<polyline style="fill:none;stroke:gray;" points="764,-846 764,-704 "/>
<path style="fill:none;stroke:gray;" d="M764,-704C764,-698 770,-692 776,-692"/>
<text text-anchor="middle" x="846" y="-844.1" style="font-family:Times New Roman;font-size:11.00;fill:gray;">Validator</text>
</g>
<g id="cluster11" class="cluster"><title>cluster_OpenShareFile\Extension\Symfony\Validator\Constraints</title>
<polyline style="fill:none;stroke:gray;" points="784,-700 908,-700 "/>
<path style="fill:none;stroke:gray;" d="M908,-700C914,-700 920,-706 920,-712"/>
<polyline style="fill:none;stroke:gray;" points="920,-712 920,-816 "/>
<path style="fill:none;stroke:gray;" d="M920,-816C920,-822 914,-828 908,-828"/>
<polyline style="fill:none;stroke:gray;" points="908,-828 784,-828 "/>
<path style="fill:none;stroke:gray;" d="M784,-828C778,-828 772,-822 772,-816"/>
<polyline style="fill:none;stroke:gray;" points="772,-816 772,-712 "/>
<path style="fill:none;stroke:gray;" d="M772,-712C772,-706 778,-700 784,-700"/>
<text text-anchor="middle" x="846" y="-814.1" style="font-family:Times New Roman;font-size:11.00;fill:gray;">Constraints</text>
</g>
<g id="cluster16" class="cluster"><title>cluster_OpenShareFile\Extension\Twig</title>
<polyline style="fill:none;stroke:gray;" points="821,-548 871,-548 "/>
<path style="fill:none;stroke:gray;" d="M871,-548C877,-548 883,-554 883,-560"/>
<polyline style="fill:none;stroke:gray;" points="883,-560 883,-664 "/>
<path style="fill:none;stroke:gray;" d="M883,-664C883,-670 877,-676 871,-676"/>
<polyline style="fill:none;stroke:gray;" points="871,-676 821,-676 "/>
<path style="fill:none;stroke:gray;" d="M821,-676C815,-676 809,-670 809,-664"/>
<polyline style="fill:none;stroke:gray;" points="809,-664 809,-560 "/>
<path style="fill:none;stroke:gray;" d="M809,-560C809,-554 815,-548 821,-548"/>
<text text-anchor="middle" x="846" y="-662.1" style="font-family:Times New Roman;font-size:11.00;fill:gray;">Twig</text>
</g>
<g id="cluster26" class="cluster"><title>cluster_OpenShareFile\Model</title>
<polyline style="fill:none;stroke:gray;" points="413,-1008 871,-1008 "/>
<path style="fill:none;stroke:gray;" d="M871,-1008C877,-1008 883,-1014 883,-1020"/>
<polyline style="fill:none;stroke:gray;" points="883,-1020 883,-1124 "/>
<path style="fill:none;stroke:gray;" d="M883,-1124C883,-1130 877,-1136 871,-1136"/>
<polyline style="fill:none;stroke:gray;" points="871,-1136 413,-1136 "/>
<path style="fill:none;stroke:gray;" d="M413,-1136C407,-1136 401,-1130 401,-1124"/>
<polyline style="fill:none;stroke:gray;" points="401,-1124 401,-1020 "/>
<path style="fill:none;stroke:gray;" d="M401,-1020C401,-1014 407,-1008 413,-1008"/>
<text text-anchor="middle" x="642" y="-1122.1" style="font-family:Times New Roman;font-size:11.00;fill:gray;">Model</text>
</g>
<g id="cluster27" class="cluster"><title>cluster_OpenShareFile\Task</title>
<polyline style="fill:none;stroke:gray;" points="823,-458 869,-458 "/>
<path style="fill:none;stroke:gray;" d="M869,-458C875,-458 881,-464 881,-470"/>
<polyline style="fill:none;stroke:gray;" points="881,-470 881,-520 "/>
<path style="fill:none;stroke:gray;" d="M881,-520C881,-526 875,-532 869,-532"/>
<polyline style="fill:none;stroke:gray;" points="869,-532 823,-532 "/>
<path style="fill:none;stroke:gray;" d="M823,-532C817,-532 811,-526 811,-520"/>
<polyline style="fill:none;stroke:gray;" points="811,-520 811,-470 "/>
<path style="fill:none;stroke:gray;" d="M811,-470C811,-464 817,-458 823,-458"/>
<text text-anchor="middle" x="846" y="-518.1" style="font-family:Times New Roman;font-size:11.00;fill:gray;">Task</text>
</g>
<g id="cluster28" class="cluster"><title>cluster_OpenShareFile\Utils</title>
<polyline style="fill:none;stroke:gray;" points="821,-268 871,-268 "/>
<path style="fill:none;stroke:gray;" d="M871,-268C877,-268 883,-274 883,-280"/>
<polyline style="fill:none;stroke:gray;" points="883,-280 883,-438 "/>
<path style="fill:none;stroke:gray;" d="M883,-438C883,-444 877,-450 871,-450"/>
<polyline style="fill:none;stroke:gray;" points="871,-450 821,-450 "/>
<path style="fill:none;stroke:gray;" d="M821,-450C815,-450 809,-444 809,-438"/>
<polyline style="fill:none;stroke:gray;" points="809,-438 809,-280 "/>
<path style="fill:none;stroke:gray;" d="M809,-280C809,-274 815,-268 821,-268"/>
<text text-anchor="middle" x="846" y="-436.1" style="font-family:Times New Roman;font-size:11.00;fill:gray;">Utils</text>
</g>
<!-- \\OpenShareFile\\App\\Download -->
<g id="node3" class="node"><title>\\OpenShareFile\\App\\Download</title>
<a xlink:href="OpenShareFile.App.Download.html" xlink:title="Download" target="_parent">
<polygon style="fill:none;stroke:black;" points="881,-1570 811,-1570 811,-1534 881,-1534 881,-1570"/>
<text text-anchor="middle" x="846" y="-1549.1" style="font-family:Courier;font-size:11.00;">Download</text>
</a>
</g>
<!-- \\OpenShareFile\\App\\App -->
<g id="node5" class="node"><title>\\OpenShareFile\\App\\App</title>
<a xlink:href="OpenShareFile.App.App.html" xlink:title="«abstract»&lt;br/&gt;App" target="_parent">
<polygon style="fill:none;stroke:black;" points="493,-1516 409,-1516 409,-1480 493,-1480 493,-1516"/>
<text text-anchor="start" x="417" y="-1502.93" style="font-family:Courier;font-size:11.00;">«abstract»</text>
<text text-anchor="start" x="441" y="-1489.73" style="font-family:Courier;font-size:11.00;">App</text>
</a>
</g>
<!-- \\OpenShareFile\\App\\Download&#45;&gt;\\OpenShareFile\\App\\App -->
<g id="edge29" class="edge"><title>\\OpenShareFile\\App\\Download&#45;&gt;\\OpenShareFile\\App\\App</title>
<path style="fill:none;stroke:black;" d="M811,-1547C741,-1537 585,-1517 503,-1505"/>
<polygon style="fill:none;stroke:black;" points="503.299,-1501.51 493,-1504 502.602,-1508.48 503.299,-1501.51"/>
</g>
<!-- \\OpenShareFile\\App\\Upload -->
<g id="node4" class="node"><title>\\OpenShareFile\\App\\Upload</title>
<a xlink:href="OpenShareFile.App.Upload.html" xlink:title="Upload" target="_parent">
<polygon style="fill:none;stroke:black;" points="874,-1516 818,-1516 818,-1480 874,-1480 874,-1516"/>
<text text-anchor="middle" x="846" y="-1495.1" style="font-family:Courier;font-size:11.00;">Upload</text>
</a>
</g>
<!-- \\OpenShareFile\\App\\Upload&#45;&gt;\\OpenShareFile\\App\\App -->
<g id="edge31" class="edge"><title>\\OpenShareFile\\App\\Upload&#45;&gt;\\OpenShareFile\\App\\App</title>
<path style="fill:none;stroke:black;" d="M817,-1498C751,-1498 588,-1498 503,-1498"/>
<polygon style="fill:none;stroke:black;" points="503,-1494.5 493,-1498 503,-1501.5 503,-1494.5"/>
</g>
<!-- \\OpenShareFile\\App\\Index -->
<g id="node6" class="node"><title>\\OpenShareFile\\App\\Index</title>
<a xlink:href="OpenShareFile.App.Index.html" xlink:title="Index" target="_parent">
<polygon style="fill:none;stroke:black;" points="873,-1462 819,-1462 819,-1426 873,-1426 873,-1462"/>
<text text-anchor="middle" x="846" y="-1441.1" style="font-family:Courier;font-size:11.00;">Index</text>
</a>
</g>
<!-- \\OpenShareFile\\App\\Index&#45;&gt;\\OpenShareFile\\App\\App -->
<g id="edge33" class="edge"><title>\\OpenShareFile\\App\\Index&#45;&gt;\\OpenShareFile\\App\\App</title>
<path style="fill:none;stroke:black;" d="M819,-1448C754,-1457 589,-1479 503,-1491"/>
<polygon style="fill:none;stroke:black;" points="502.602,-1487.52 493,-1492 503.299,-1494.49 502.602,-1487.52"/>
</g>
<!-- \\OpenShareFile\\Core\\Exception\\Exception -->
<g id="node9" class="node"><title>\\OpenShareFile\\Core\\Exception\\Exception</title>
<a xlink:href="OpenShareFile.Core.Exception.Exception.html" xlink:title="Exception" target="_parent">
<polygon style="fill:none;stroke:black;" points="489,-1323 413,-1323 413,-1287 489,-1287 489,-1323"/>
<text text-anchor="middle" x="451" y="-1302.1" style="font-family:Courier;font-size:11.00;">Exception</text>
</a>
</g>
<!-- \\Exception -->
<g id="node65" class="node"><title>\\Exception</title>
<ellipse style="fill:none;stroke:black;" cx="61" cy="-1305" rx="61.1496" ry="18"/>
<text text-anchor="middle" x="61" y="-1300.9" style="font-family:Times New Roman;font-size:14.00;fill:gray;">\Exception</text>
</g>
<!-- \\OpenShareFile\\Core\\Exception\\Exception&#45;&gt;\\Exception -->
<g id="edge49" class="edge"><title>\\OpenShareFile\\Core\\Exception\\Exception&#45;&gt;\\Exception</title>
<path style="fill:none;stroke:black;" d="M412,-1305C348,-1305 215,-1305 132,-1305"/>
<polygon style="fill:none;stroke:black;" points="132,-1301.5 122,-1305 132,-1308.5 132,-1301.5"/>
</g>
<!-- \\OpenShareFile\\Core\\Exception\\Error404 -->
<g id="node10" class="node"><title>\\OpenShareFile\\Core\\Exception\\Error404</title>
<a xlink:href="OpenShareFile.Core.Exception.Error404.html" xlink:title="Error404" target="_parent">
<polygon style="fill:none;stroke:black;" points="881,-1350 811,-1350 811,-1314 881,-1314 881,-1350"/>
<text text-anchor="middle" x="846" y="-1329.1" style="font-family:Courier;font-size:11.00;">Error404</text>
</a>
</g>
<!-- \\OpenShareFile\\Core\\Exception\\Error404&#45;&gt;\\OpenShareFile\\Core\\Exception\\Exception -->
<g id="edge51" class="edge"><title>\\OpenShareFile\\Core\\Exception\\Error404&#45;&gt;\\OpenShareFile\\Core\\Exception\\Exception</title>
<path style="fill:none;stroke:black;" d="M811,-1330C740,-1325 581,-1314 500,-1309"/>
<polygon style="fill:none;stroke:black;" points="500.299,-1305.51 490,-1308 499.602,-1312.48 500.299,-1305.51"/>
</g>
<!-- \\OpenShareFile\\Core\\Exception\\Security -->
<g id="node11" class="node"><title>\\OpenShareFile\\Core\\Exception\\Security</title>
<a xlink:href="OpenShareFile.Core.Exception.Security.html" xlink:title="Security" target="_parent">
<polygon style="fill:none;stroke:black;" points="881,-1296 811,-1296 811,-1260 881,-1260 881,-1296"/>
<text text-anchor="middle" x="846" y="-1275.1" style="font-family:Courier;font-size:11.00;">Security</text>
</a>
</g>
<!-- \\OpenShareFile\\Core\\Exception\\Security&#45;&gt;\\OpenShareFile\\Core\\Exception\\Exception -->
<g id="edge53" class="edge"><title>\\OpenShareFile\\Core\\Exception\\Security&#45;&gt;\\OpenShareFile\\Core\\Exception\\Exception</title>
<path style="fill:none;stroke:black;" d="M811,-1280C740,-1285 581,-1296 500,-1301"/>
<polygon style="fill:none;stroke:black;" points="499.602,-1297.52 490,-1302 500.299,-1304.49 499.602,-1297.52"/>
</g>
<!-- \\OpenShareFile\\Core\\Config -->
<g id="node12" class="node"><title>\\OpenShareFile\\Core\\Config</title>
<a xlink:href="OpenShareFile.Core.Config.html" xlink:title="Config" target="_parent">
<polygon style="fill:none;stroke:black;" points="874,-1242 818,-1242 818,-1206 874,-1206 874,-1242"/>
<text text-anchor="middle" x="846" y="-1221.1" style="font-family:Courier;font-size:11.00;">Config</text>
</a>
</g>
<!-- \\OpenShareFile\\Core\\Autoload -->
<g id="node13" class="node"><title>\\OpenShareFile\\Core\\Autoload</title>
<a xlink:href="OpenShareFile.Core.Autoload.html" xlink:title="Autoload" target="_parent">
<polygon style="fill:none;stroke:black;" points="881,-1188 811,-1188 811,-1152 881,-1152 881,-1188"/>
<text text-anchor="middle" x="846" y="-1167.1" style="font-family:Courier;font-size:11.00;">Autoload</text>
</a>
</g>
<!-- \\OpenShareFile\\Extension\\Swift\\Send -->
<g id="node17" class="node"><title>\\OpenShareFile\\Extension\\Swift\\Send</title>
<a xlink:href="OpenShareFile.Extension.Swift.Send.html" xlink:title="Send" target="_parent">
<polygon style="fill:none;stroke:black;" points="873,-940 819,-940 819,-904 873,-904 873,-940"/>
<text text-anchor="middle" x="846" y="-919.1" style="font-family:Courier;font-size:11.00;">Send</text>
</a>
</g>
<!-- \\OpenShareFile\\Extension\\Symfony\\Validator\\Constraints\\PasswordValidator -->
<g id="node21" class="node"><title>\\OpenShareFile\\Extension\\Symfony\\Validator\\Constraints\\PasswordValidator</title>
<a xlink:href="OpenShareFile.Extension.Symfony.Validator.Constraints.PasswordValidator.html" xlink:title="PasswordValidator" target="_parent">
<polygon style="fill:none;stroke:black;" points="911,-798 781,-798 781,-762 911,-762 911,-798"/>
<text text-anchor="middle" x="846" y="-777.1" style="font-family:Courier;font-size:11.00;">PasswordValidator</text>
</a>
</g>
<!-- \\Symfony\\Component\\Validator\\ConstraintValidator -->
<g id="node56" class="node"><title>\\Symfony\\Component\\Validator\\ConstraintValidator</title>
<ellipse style="fill:none;stroke:black;" cx="451" cy="-188" rx="255.912" ry="18"/>
<text text-anchor="middle" x="451" y="-183.9" style="font-family:Times New Roman;font-size:14.00;fill:gray;">\Symfony\Component\Validator\ConstraintValidator</text>
</g>
<!-- \\OpenShareFile\\Extension\\Symfony\\Validator\\Constraints\\PasswordValidator&#45;&gt;\\Symfony\\Component\\Validator\\ConstraintValidator -->
<g id="edge39" class="edge"><title>\\OpenShareFile\\Extension\\Symfony\\Validator\\Constraints\\PasswordValidator&#45;&gt;\\Symfony\\Component\\Validator\\ConstraintValidator</title>
<path style="fill:none;stroke:black;" d="M780,-770C769,-766 757,-761 748,-753 562,-605 479,-308 457,-216"/>
<polygon style="fill:none;stroke:black;" points="460.393,-215.119 455,-206 453.529,-216.492 460.393,-215.119"/>
</g>
<!-- \\OpenShareFile\\Extension\\Symfony\\Validator\\Constraints\\Password -->
<g id="node22" class="node"><title>\\OpenShareFile\\Extension\\Symfony\\Validator\\Constraints\\Password</title>
<a xlink:href="OpenShareFile.Extension.Symfony.Validator.Constraints.Password.html" xlink:title="Password" target="_parent">
<polygon style="fill:none;stroke:black;" points="881,-744 811,-744 811,-708 881,-708 881,-744"/>
<text text-anchor="middle" x="846" y="-723.1" style="font-family:Courier;font-size:11.00;">Password</text>
</a>
</g>
<!-- \\Symfony\\Component\\Validator\\Constraint -->
<g id="node58" class="node"><title>\\Symfony\\Component\\Validator\\Constraint</title>
<ellipse style="fill:none;stroke:black;" cx="451" cy="-134" rx="214.024" ry="18"/>
<text text-anchor="middle" x="451" y="-129.9" style="font-family:Times New Roman;font-size:14.00;fill:gray;">\Symfony\Component\Validator\Constraint</text>
</g>
<!-- \\OpenShareFile\\Extension\\Symfony\\Validator\\Constraints\\Password&#45;&gt;\\Symfony\\Component\\Validator\\Constraint -->
<g id="edge41" class="edge"><title>\\OpenShareFile\\Extension\\Symfony\\Validator\\Constraints\\Password&#45;&gt;\\Symfony\\Component\\Validator\\Constraint</title>
<path style="fill:none;stroke:black;" d="M811,-719C789,-713 762,-701 748,-680 682,-585 788,-244 708,-161 668,-120 603,-114 549,-117"/>
<polygon style="fill:none;stroke:black;" points="548.602,-113.522 539,-118 549.299,-120.488 548.602,-113.522"/>
</g>
<!-- \\OpenShareFile\\Extension\\Twig\\Asset -->
<g id="node28" class="node"><title>\\OpenShareFile\\Extension\\Twig\\Asset</title>
<a xlink:href="OpenShareFile.Extension.Twig.Asset.html" xlink:title="Asset" target="_parent">
<polygon style="fill:none;stroke:black;" points="873,-646 819,-646 819,-610 873,-610 873,-646"/>
<text text-anchor="middle" x="846" y="-625.1" style="font-family:Courier;font-size:11.00;">Asset</text>
</a>
</g>
<!-- \\Twig_Extension -->
<g id="node60" class="node"><title>\\Twig_Extension</title>
<ellipse style="fill:none;stroke:black;" cx="451" cy="-80" rx="88.9449" ry="18"/>
<text text-anchor="middle" x="451" y="-75.9" style="font-family:Times New Roman;font-size:14.00;fill:gray;">\Twig_Extension</text>
</g>
<!-- \\OpenShareFile\\Extension\\Twig\\Asset&#45;&gt;\\Twig_Extension -->
<g id="edge43" class="edge"><title>\\OpenShareFile\\Extension\\Twig\\Asset&#45;&gt;\\Twig_Extension</title>
<path style="fill:none;stroke:black;" d="M819,-629C796,-627 765,-622 748,-601 677,-517 784,-186 708,-107 661,-59 580,-58 522,-66"/>
<polygon style="fill:none;stroke:black;" points="521.602,-62.5222 512,-67 522.299,-69.4875 521.602,-62.5222"/>
</g>
<!-- \\OpenShareFile\\Extension\\Twig\\Config -->
<g id="node29" class="node"><title>\\OpenShareFile\\Extension\\Twig\\Config</title>
<a xlink:href="OpenShareFile.Extension.Twig.Config.html" xlink:title="Config" target="_parent">
<polygon style="fill:none;stroke:black;" points="874,-592 818,-592 818,-556 874,-556 874,-592"/>
<text text-anchor="middle" x="846" y="-571.1" style="font-family:Courier;font-size:11.00;">Config</text>
</a>
</g>
<!-- \\OpenShareFile\\Extension\\Twig\\Config&#45;&gt;\\Twig_Extension -->
<g id="edge45" class="edge"><title>\\OpenShareFile\\Extension\\Twig\\Config&#45;&gt;\\Twig_Extension</title>
<path style="fill:none;stroke:black;" d="M817,-571C795,-567 764,-558 748,-536 690,-460 775,-176 708,-107 661,-60 581,-58 523,-66"/>
<polygon style="fill:none;stroke:black;" points="522.602,-62.5222 513,-67 523.299,-69.4875 522.602,-62.5222"/>
</g>
<!-- \\OpenShareFile\\Model\\Upload -->
<g id="node40" class="node"><title>\\OpenShareFile\\Model\\Upload</title>
<a xlink:href="OpenShareFile.Model.Upload.html" xlink:title="Upload" target="_parent">
<polygon style="fill:none;stroke:black;" points="874,-1106 818,-1106 818,-1070 874,-1070 874,-1106"/>
<text text-anchor="middle" x="846" y="-1085.1" style="font-family:Courier;font-size:11.00;">Upload</text>
</a>
</g>
<!-- \\OpenShareFile\\Model\\Db -->
<g id="node42" class="node"><title>\\OpenShareFile\\Model\\Db</title>
<a xlink:href="OpenShareFile.Model.Db.html" xlink:title="«abstract»&lt;br/&gt;Db" target="_parent">
<polygon style="fill:none;stroke:black;" points="493,-1079 409,-1079 409,-1043 493,-1043 493,-1079"/>
<text text-anchor="start" x="417" y="-1065.93" style="font-family:Courier;font-size:11.00;">«abstract»</text>
<text text-anchor="start" x="444" y="-1052.73" style="font-family:Courier;font-size:11.00;">Db</text>
</a>
</g>
<!-- \\OpenShareFile\\Model\\Upload&#45;&gt;\\OpenShareFile\\Model\\Db -->
<g id="edge35" class="edge"><title>\\OpenShareFile\\Model\\Upload&#45;&gt;\\OpenShareFile\\Model\\Db</title>
<path style="fill:none;stroke:black;" d="M817,-1086C751,-1081 588,-1070 503,-1065"/>
<polygon style="fill:none;stroke:black;" points="503.299,-1061.51 493,-1064 502.602,-1068.48 503.299,-1061.51"/>
</g>
<!-- \\OpenShareFile\\Model\\File -->
<g id="node41" class="node"><title>\\OpenShareFile\\Model\\File</title>
<a xlink:href="OpenShareFile.Model.File.html" xlink:title="File" target="_parent">
<polygon style="fill:none;stroke:black;" points="873,-1052 819,-1052 819,-1016 873,-1016 873,-1052"/>
<text text-anchor="middle" x="846" y="-1031.1" style="font-family:Courier;font-size:11.00;">File</text>
</a>
</g>
<!-- \\OpenShareFile\\Model\\File&#45;&gt;\\OpenShareFile\\Model\\Db -->
<g id="edge37" class="edge"><title>\\OpenShareFile\\Model\\File&#45;&gt;\\OpenShareFile\\Model\\Db</title>
<path style="fill:none;stroke:black;" d="M819,-1036C754,-1041 589,-1052 503,-1057"/>
<polygon style="fill:none;stroke:black;" points="502.602,-1053.52 493,-1058 503.299,-1060.49 502.602,-1053.52"/>
</g>
<!-- \\OpenShareFile\\Task\\Clean -->
<g id="node44" class="node"><title>\\OpenShareFile\\Task\\Clean</title>
<a xlink:href="OpenShareFile.Task.Clean.html" xlink:title="Clean" target="_parent">
<polygon style="fill:none;stroke:black;" points="873,-502 819,-502 819,-466 873,-466 873,-502"/>
<text text-anchor="middle" x="846" y="-481.1" style="font-family:Courier;font-size:11.00;">Clean</text>
</a>
</g>
<!-- \\Symfony\\Component\\Console\\Command\\Command -->
<g id="node63" class="node"><title>\\Symfony\\Component\\Console\\Command\\Command</title>
<ellipse style="fill:none;stroke:black;" cx="451" cy="-26" rx="257.106" ry="18"/>
<text text-anchor="middle" x="451" y="-21.9" style="font-family:Times New Roman;font-size:14.00;fill:gray;">\Symfony\Component\Console\Command\Command</text>
</g>
<!-- \\OpenShareFile\\Task\\Clean&#45;&gt;\\Symfony\\Component\\Console\\Command\\Command -->
<g id="edge47" class="edge"><title>\\OpenShareFile\\Task\\Clean&#45;&gt;\\Symfony\\Component\\Console\\Command\\Command</title>
<path style="fill:none;stroke:black;" d="M819,-484C796,-482 765,-475 748,-454 691,-385 771,-117 708,-53 670,-15 609,-7 557,-9"/>
<polygon style="fill:none;stroke:black;" points="557,-5.5001 547,-9 557,-12.5001 557,-5.5001"/>
</g>
<!-- \\OpenShareFile\\Utils\\Passwd -->
<g id="node46" class="node"><title>\\OpenShareFile\\Utils\\Passwd</title>
<a xlink:href="OpenShareFile.Utils.Passwd.html" xlink:title="Passwd" target="_parent">
<polygon style="fill:none;stroke:black;" points="874,-420 818,-420 818,-384 874,-384 874,-420"/>
<text text-anchor="middle" x="846" y="-399.1" style="font-family:Courier;font-size:11.00;">Passwd</text>
</a>
</g>
<!-- \\OpenShareFile\\Utils\\Clean -->
<g id="node47" class="node"><title>\\OpenShareFile\\Utils\\Clean</title>
<a xlink:href="OpenShareFile.Utils.Clean.html" xlink:title="Clean" target="_parent">
<polygon style="fill:none;stroke:black;" points="873,-366 819,-366 819,-330 873,-330 873,-366"/>
<text text-anchor="middle" x="846" y="-345.1" style="font-family:Courier;font-size:11.00;">Clean</text>
</a>
</g>
<!-- \\OpenShareFile\\Utils\\Gpg -->
<g id="node48" class="node"><title>\\OpenShareFile\\Utils\\Gpg</title>
<a xlink:href="OpenShareFile.Utils.Gpg.html" xlink:title="Gpg" target="_parent">
<polygon style="fill:none;stroke:black;" points="873,-312 819,-312 819,-276 873,-276 873,-312"/>
<text text-anchor="middle" x="846" y="-291.1" style="font-family:Courier;font-size:11.00;">Gpg</text>
</a>
</g>
<!-- \\OpenShareFile\\OpenShareFile -->
<g id="node49" class="node"><title>\\OpenShareFile\\OpenShareFile</title>
<a xlink:href="OpenShareFile.OpenShareFile.html" xlink:title="OpenShareFile" target="_parent">
<polygon style="fill:none;stroke:black;" points="898,-258 794,-258 794,-222 898,-222 898,-258"/>
<text text-anchor="middle" x="846" y="-237.1" style="font-family:Courier;font-size:11.00;">OpenShareFile</text>
</a>
</g>
</g>
</svg>
